HIERARCHY
ROOT joint_0
{
	OFFSET 0.000000 0.000000 0.000000
	CHANNELS 6 Xposition Yposition Zposition Zrotation Yrotation Xrotation 
	JOINT joint_1
	{
		OFFSET 5.091736 1.614004 124.993042
		CHANNELS 3 Zrotation Yrotation Xrotation
		JOINT joint_2
		{
			OFFSET -7.754517 4.363039 113.797974
			CHANNELS 3 Zrotation Yrotation Xrotation
			JOINT joint_3
			{
				OFFSET -8.706238 5.370684 113.558960
				CHANNELS 3 Zrotation Yrotation Xrotation
				JOINT joint_4
				{
					OFFSET 2.800659 5.843341 158.209106
					CHANNELS 3 Zrotation Yrotation Xrotation
					JOINT joint_5
					{
						OFFSET 20.525452 8.617594 92.185913
						CHANNELS 3 Zrotation Yrotation Xrotation
						End Site
						{
							OFFSET 0.000000 0.000000 0.000000
						}
					}
				}
				JOINT joint_6
				{
					OFFSET -4.183167 -30.671114 90.057007
					CHANNELS 3 Zrotation Yrotation Xrotation
					JOINT joint_7
					{
						OFFSET -24.729675 -138.200195 -6.097900
						CHANNELS 3 Zrotation Yrotation Xrotation
						JOINT joint_8
						{
							OFFSET 16.966858 -51.567780 -315.633057
							CHANNELS 3 Zrotation Yrotation Xrotation
							JOINT joint_9
							{
								OFFSET 129.835388 -40.459091 176.646973
								CHANNELS 3 Zrotation Yrotation Xrotation
								End Site
								{
									OFFSET 0.000000 0.000000 0.000000
								}
							}
						}
					}
				}
				JOINT joint_10
				{
					OFFSET 7.338745 37.199406 87.346069
					CHANNELS 3 Zrotation Yrotation Xrotation
					JOINT joint_11
					{
						OFFSET 20.327698 137.488367 -20.779053
						CHANNELS 3 Zrotation Yrotation Xrotation
						JOINT joint_12
						{
							OFFSET 150.763062 48.206573 -278.419922
							CHANNELS 3 Zrotation Yrotation Xrotation
							JOINT joint_13
							{
								OFFSET 12.571289 -162.355251 152.253906
								CHANNELS 3 Zrotation Yrotation Xrotation
								End Site
								{
									OFFSET 0.000000 0.000000 0.000000
								}
							}
						}
					}
				}
			}
		}
	}
	JOINT joint_14
	{
		OFFSET -7.600342 -77.970001 -95.010986
		CHANNELS 3 Zrotation Yrotation Xrotation
		JOINT joint_15
		{
			OFFSET -2.666199 -21.455009 -443.700989
			CHANNELS 3 Zrotation Yrotation Xrotation
			JOINT joint_16
			{
				OFFSET -22.487976 -19.310196 -481.059006
				CHANNELS 3 Zrotation Yrotation Xrotation
				JOINT joint_17
				{
					OFFSET 177.776611 65.723053 -82.445997
					CHANNELS 3 Zrotation Yrotation Xrotation
					End Site
					{
						OFFSET 0.000000 0.000000 0.000000
					}
				}
			}
		}
	}
	JOINT joint_18
	{
		OFFSET 17.063904 75.900681 -95.447021
		CHANNELS 3 Zrotation Yrotation Xrotation
		JOINT joint_19
		{
			OFFSET -21.510803 8.101997 -443.629944
			CHANNELS 3 Zrotation Yrotation Xrotation
			JOINT joint_20
			{
				OFFSET -7.473022 -28.501774 -481.230011
				CHANNELS 3 Zrotation Yrotation Xrotation
				JOINT joint_21
				{
					OFFSET 177.760559 -64.115177 -83.737001
					CHANNELS 3 Zrotation Yrotation Xrotation
					End Site
					{
						OFFSET 0.000000 0.000000 0.000000
					}
				}
			}
		}
	}
}
MOTION
Frames: 13
Frame Time: 0.016667
-289.883087 -103.643593 1142.327026 32.771331 3.920747 1.723126 -3.157088 7.761279 -1.088886 -1.908357 -0.804266 0.374625 -2.051080 1.617475 -0.054921 1.241134 -4.077000 -4.777758 0.000000 0.000000 0.000000 5.945565 -7.298635 0.584692 13.881873 -3.869214 -15.074130 10.596737 4.714915 -36.434947 0.000000 0.000000 0.000000 -1.442914 1.111757 -5.041770 5.609096 1.643961 -2.049425 5.622274 5.434959 -3.492272 0.000000 0.000000 0.000000 -16.533914 -4.240034 6.499398 -17.236999 20.233963 -12.457888 -16.469401 0.391170 -7.071343 0.000000 0.000000 0.000000 -9.608930 -13.313685 1.216730 -8.507158 28.395208 6.727800 -3.103266 -4.942093 -3.177479 0.000000 0.000000 0.000000 
-286.826508 -104.184715 1143.124023 33.477796 3.972633 1.833194 -3.025373 7.808948 -0.835629 -1.690384 -0.823002 0.313625 -1.821892 1.647535 -0.041600 1.237025 -3.973160 -4.923139 0.000000 0.000000 0.000000 6.119140 -7.278708 0.467053 13.507896 -3.782167 -14.959952 10.199778 4.748735 -36.822407 0.000000 0.000000 0.000000 -1.262532 1.252063 -5.255766 5.546605 1.749707 -2.057357 5.653746 5.507349 -3.389864 0.000000 0.000000 0.000000 -16.786971 -4.263322 6.644703 -17.484434 20.260456 -12.651517 -16.700677 0.790897 -7.299902 0.000000 0.000000 0.000000 -9.308069 -14.337121 1.101958 -8.064261 30.055984 6.665660 -1.756832 -5.378315 -2.779106 0.000000 0.000000 0.000000 
-283.805756 -104.339630 1143.698975 34.028826 4.035032 1.923594 -2.879755 7.824710 -0.615994 -1.466369 -0.833325 0.250518 -1.585873 1.666799 -0.028715 1.232240 -3.870697 -5.061775 0.000000 0.000000 0.000000 6.256527 -7.340911 0.397997 13.183328 -3.739804 -14.887283 9.860991 4.788222 -37.180515 0.000000 0.000000 0.000000 -1.122325 1.412848 -5.462681 5.486491 1.895533 -2.066309 5.609853 5.500158 -3.411144 0.000000 0.000000 0.000000 -16.993646 -4.303889 6.763327 -17.693968 20.321985 -12.822220 -16.905281 1.139381 -7.497902 0.000000 0.000000 0.000000 -8.743362 -15.306224 0.982655 -7.346772 31.560862 6.661079 0.054848 -6.022966 -2.268527 0.000000 0.000000 0.000000 
-280.719971 -104.117279 1144.254028 34.482548 4.101148 2.001100 -2.732113 7.832170 -0.452286 -1.246330 -0.837992 0.196714 -1.355537 1.680859 -0.023209 1.228823 -3.811174 -5.189964 0.000000 0.000000 0.000000 6.332048 -7.433197 0.391913 12.895581 -3.706809 -14.879718 9.571887 4.783641 -37.517417 0.000000 0.000000 0.000000 -1.041400 1.529984 -5.650621 5.430940 2.013045 -2.061247 5.556700 5.480987 -3.444392 0.000000 0.000000 0.000000 -17.139999 -4.376627 6.830712 -17.853457 20.462863 -12.956241 -17.051114 1.516503 -7.680871 0.000000 0.000000 0.000000 -8.060952 -16.170794 0.874395 -6.512372 32.827030 6.748717 2.057722 -6.679452 -1.687719 0.000000 0.000000 0.000000 
-277.475525 -103.529388 1144.909058 34.880554 4.165152 2.083288 -2.585713 7.831413 -0.387759 -1.037580 -0.833078 0.170184 -1.141432 1.690749 -0.033754 1.228374 -3.823088 -5.310251 0.000000 0.000000 0.000000 6.319559 -7.526239 0.465866 12.632686 -3.662644 -14.951112 9.327252 4.690988 -37.835265 0.000000 0.000000 0.000000 -1.032560 1.556155 -5.817214 5.374305 2.046779 -2.041366 5.531667 5.487700 -3.412673 0.000000 0.000000 0.000000 -17.205294 -4.514707 6.800671 -17.946343 20.761874 -13.032362 -17.097124 1.971734 -7.849487 0.000000 0.000000 0.000000 -7.265652 -16.886748 0.762884 -5.574548 33.768306 6.991012 4.169359 -7.214830 -1.023740 0.000000 0.000000 0.000000 
-274.111328 -102.574821 1145.584961 35.204292 4.232090 2.169900 -2.435426 7.812710 -0.420368 -0.837963 -0.815214 0.171051 -0.941488 1.692658 -0.057334 1.231240 -3.893522 -5.427788 0.000000 0.000000 0.000000 6.229988 -7.639558 0.612258 12.397673 -3.621777 -15.085372 9.129085 4.524989 -38.137691 0.000000 0.000000 0.000000 -1.082456 1.520182 -5.963977 5.308397 2.023705 -2.028416 5.507115 5.491300 -3.358616 0.000000 0.000000 0.000000 -17.194465 -4.713949 6.680005 -17.977584 21.202121 -13.053612 -17.053675 2.474908 -7.997716 0.000000 0.000000 0.000000 -6.284272 -17.480040 0.638599 -4.453744 34.400349 7.368836 6.498431 -7.743488 -0.269868 0.000000 0.000000 0.000000 
-270.733398 -101.216484 1146.354980 35.468081 4.312049 2.223420 -2.317847 7.832566 -0.454584 -0.661384 -0.806784 0.169944 -0.764870 1.705313 -0.077758 1.238031 -4.013659 -5.534037 0.000000 0.000000 0.000000 6.108218 -7.758020 0.791613 12.208845 -3.592453 -15.252757 8.967495 4.329179 -38.470302 0.000000 0.000000 0.000000 -1.196208 1.452094 -6.060169 5.250679 1.981991 -2.029996 5.500591 5.502811 -3.292650 0.000000 0.000000 0.000000 -17.164307 -4.874403 6.573393 -17.987821 21.558937 -13.051094 -17.001693 3.044086 -8.169039 0.000000 0.000000 0.000000 -5.347869 -18.038401 0.582071 -3.374640 34.869972 7.718694 8.708322 -8.187666 0.464586 0.000000 0.000000 0.000000 
-267.451416 -99.477196 1147.306030 35.688167 4.417870 2.220200 -2.268219 7.933032 -0.432839 -0.522001 -0.819929 0.150395 -0.622115 1.741760 -0.084400 1.250183 -4.185640 -5.623250 0.000000 0.000000 0.000000 5.983333 -7.885778 0.977236 12.085716 -3.587846 -15.441115 8.840506 4.130102 -38.881705 0.000000 0.000000 0.000000 -1.386331 1.359075 -6.078028 5.215065 1.935796 -2.045490 5.514156 5.519775 -3.235453 0.000000 0.000000 0.000000 -17.165688 -4.918288 6.563631 -18.013224 21.638253 -13.048406 -17.015120 3.693938 -8.402340 0.000000 0.000000 0.000000 -4.603632 -18.625145 0.656306 -2.479471 35.301406 7.929953 10.585591 -8.458877 1.122008 0.000000 0.000000 0.000000 
-264.226807 -97.371094 1148.410034 35.861735 4.546784 2.176867 -2.276884 8.091759 -0.396280 -0.415751 -0.844973 0.126985 -0.510715 1.791228 -0.084055 1.267300 -4.411597 -5.697432 0.000000 0.000000 0.000000 5.842625 -8.029135 1.181098 12.021100 -3.604428 -15.653483 8.750729 3.909902 -39.359290 0.000000 0.000000 0.000000 -1.646351 1.233328 -6.027201 5.191358 1.872219 -2.078601 5.539087 5.535552 -3.184141 0.000000 0.000000 0.000000 -17.179688 -4.884288 6.609542 -18.039428 21.523212 -13.034302 -17.065977 4.416750 -8.682093 0.000000 0.000000 0.000000 -3.941799 -19.215052 0.827287 -1.659188 35.650128 8.065789 12.271970 -8.580302 1.752432 0.000000 0.000000 0.000000 
-260.870453 -94.691566 1149.500977 35.974198 4.677977 2.098552 -2.300418 8.262060 -0.333545 -0.321714 -0.866876 0.094513 -0.409408 1.838283 -0.076546 1.285706 -4.678544 -5.752752 0.000000 0.000000 0.000000 5.676634 -8.121881 1.392764 11.984488 -3.605012 -15.828543 8.674015 3.682291 -39.821537 0.000000 0.000000 0.000000 -1.946333 1.123111 -5.943673 5.171832 1.833947 -2.140631 5.622216 5.597561 -3.068144 0.000000 0.000000 0.000000 -17.156480 -4.847294 6.649498 -18.030642 21.439104 -13.018940 -17.080997 5.186596 -8.963717 0.000000 0.000000 0.000000 -3.422153 -19.827690 1.050049 -0.973035 35.962382 8.173692 13.703091 -8.528104 2.337609 0.000000 0.000000 0.000000 
-257.230927 -91.252960 1150.489014 36.021389 4.791593 1.987564 -2.319559 8.429186 -0.227967 -0.232555 -0.883983 0.045799 -0.310333 1.880907 -0.057356 1.304232 -4.993610 -5.787702 0.000000 0.000000 0.000000 5.491473 -8.113716 1.610316 11.951155 -3.561387 -15.928520 8.588546 3.430632 -40.265824 0.000000 0.000000 0.000000 -2.264843 1.064549 -5.850968 5.149780 1.854392 -2.243176 5.806498 5.746510 -2.822705 0.000000 0.000000 0.000000 -17.060256 -4.849299 6.646340 -17.960235 21.534050 -13.018951 -17.006502 5.994798 -9.218654 0.000000 0.000000 0.000000 -3.118243 -20.475162 1.291643 -0.498675 36.303187 8.285036 14.798378 -8.208715 2.874783 0.000000 0.000000 0.000000 
-253.379532 -87.135223 1151.436035 36.011161 4.896371 1.845360 -2.351356 8.607421 -0.092870 -0.157237 -0.897001 -0.012383 -0.222817 1.920511 -0.026244 1.323730 -5.361569 -5.804141 0.000000 0.000000 0.000000 5.293995 -8.029156 1.842281 11.930198 -3.484100 -15.980625 8.503869 3.148791 -40.722596 0.000000 0.000000 0.000000 -2.611150 1.038922 -5.733087 5.126663 1.917169 -2.386212 6.075822 5.967096 -2.473909 0.000000 0.000000 0.000000 -16.908893 -4.864580 6.619071 -17.840138 21.723438 -13.027361 -16.866786 6.853922 -9.463897 0.000000 0.000000 0.000000 -2.997628 -21.151650 1.569828 -0.204088 36.666701 8.383188 15.591445 -7.606636 3.382385 0.000000 0.000000 0.000000 
-249.441422 -82.546814 1152.262939 35.925574 5.013481 1.678558 -2.350879 8.744746 0.028123 -0.070614 -0.898327 -0.062423 -0.125818 1.947834 -0.003698 1.338436 -5.719754 -5.792244 0.000000 0.000000 0.000000 5.028858 -7.898785 2.091734 11.945674 -3.388691 -16.004478 8.455001 2.975797 -40.944277 0.000000 0.000000 0.000000 -2.994588 1.023215 -5.595093 5.117254 1.996608 -2.548277 6.384218 6.226061 -2.103824 0.000000 0.000000 0.000000 -16.707553 -4.913367 6.544877 -17.677919 21.993771 -12.982575 -16.671899 7.736095 -9.695547 0.000000 0.000000 0.000000 -2.952071 -21.849212 1.920337 0.033267 36.924019 8.442521 16.173669 -6.979181 3.816307 0.000000 0.000000 0.000000 
